<svg xmlns="http://www.w3.org/2000/svg" xmlns:xlink="http://www.w3.org/1999/xlink" width="601pt" height="404pt" viewBox="0 0 600.56 404"><g id="graph0" class="graph" transform="scale(1 1) rotate(0) translate(4 400)"><polygon fill="#fff" stroke="none" points="-4 4 -4 -400 596.56 -400 596.56 4 -4 4"/><g id="node1" class="node"><title>[root] netapp-ontap_storage_volume_resource.volume1 (expand)</title><polygon fill="none" stroke="#000" points="438.53 -180 154.03 -180 154.03 -144 438.53 -144 438.53 -180"/><text x="296.28" y="-156.95" font-family="Times,serif" font-size="14" text-anchor="middle">netapp-ontap_storage_volume_resource.volume1</text></g><g id="node3" class="node"><title>[root] provider[&quot;registry.terraform.io/netapp/netapp-ontap&quot;]</title><polygon fill="none" stroke="#000" points="296.28 -108 0 -90 296.28 -72 592.56 -90 296.28 -108"/><text x="296.28" y="-84.95" font-family="Times,serif" font-size="14" text-anchor="middle">provider[&quot;registry.terraform.io/netapp/netapp-ontap&quot;]</text></g><g id="edge1" class="edge"><title>[root] netapp-ontap_storage_volume_resource.volume1 (expand)-&gt;[root] provider[&quot;registry.terraform.io/netapp/netapp-ontap&quot;]</title><path fill="none" stroke="#000" d="M296.28,-143.7C296.28,-136.41 296.28,-127.73 296.28,-119.54"/><polygon fill="#000" stroke="#000" points="299.78 -119.62 296.28 -109.62 292.78 -119.62 299.78 -119.62"/></g><g id="node2" class="node"><title>[root] netapp-ontap_storage_volume_snapshot_resource.snapshot1 (expand)</title><polygon fill="none" stroke="#000" points="468.53 -252 124.03 -252 124.03 -216 468.53 -216 468.53 -252"/><text x="296.28" y="-228.95" font-family="Times,serif" font-size="14" text-anchor="middle">netapp-ontap_storage_volume_snapshot_resource.snapshot1</text></g><g id="edge2" class="edge"><title>[root] netapp-ontap_storage_volume_snapshot_resource.snapshot1 (expand)-&gt;[root] netapp-ontap_storage_volume_resource.volume1 (expand)</title><path fill="none" stroke="#000" d="M296.28,-215.7C296.28,-208.41 296.28,-199.73 296.28,-191.54"/><polygon fill="#000" stroke="#000" points="299.78 -191.62 296.28 -181.62 292.78 -191.62 299.78 -191.62"/></g><g id="node4" class="node"><title>[root] var.password</title><polygon fill="none" stroke="#000" points="227.9 -36 146.65 -36 146.65 0 233.9 0 233.9 -30 227.9 -36"/><polyline fill="none" stroke="#000" points="227.9 -36 227.9 -30"/><polyline fill="none" stroke="#000" points="233.9 -30 227.9 -30"/><text x="190.28" y="-12.95" font-family="Times,serif" font-size="14" text-anchor="middle">var.password</text></g><g id="edge4" class="edge"><title>[root] provider[&quot;registry.terraform.io/netapp/netapp-ontap&quot;]-&gt;[root] var.password</title><path fill="none" stroke="#000" d="M272.22,-73.12C258.47,-64.03 240.95,-52.46 225.65,-42.36"/><polygon fill="#000" stroke="#000" points="228 -39.72 217.73 -37.13 224.14 -45.56 228 -39.72"/></g><g id="node5" class="node"><title>[root] var.username</title><polygon fill="none" stroke="#000" points="334.65 -36 251.9 -36 251.9 0 340.65 0 340.65 -30 334.65 -36"/><polyline fill="none" stroke="#000" points="334.65 -36 334.65 -30"/><polyline fill="none" stroke="#000" points="340.65 -30 334.65 -30"/><text x="296.28" y="-12.95" font-family="Times,serif" font-size="14" text-anchor="middle">var.username</text></g><g id="edge5" class="edge"><title>[root] provider[&quot;registry.terraform.io/netapp/netapp-ontap&quot;]-&gt;[root] var.username</title><path fill="none" stroke="#000" d="M296.28,-71.7C296.28,-64.41 296.28,-55.73 296.28,-47.54"/><polygon fill="#000" stroke="#000" points="299.78 -47.62 296.28 -37.62 292.78 -47.62 299.78 -47.62"/></g><g id="node6" class="node"><title>[root] var.validate_certs</title><polygon fill="none" stroke="#000" points="463.9 -36 358.65 -36 358.65 0 469.9 0 469.9 -30 463.9 -36"/><polyline fill="none" stroke="#000" points="463.9 -36 463.9 -30"/><polyline fill="none" stroke="#000" points="469.9 -30 463.9 -30"/><text x="414.28" y="-12.95" font-family="Times,serif" font-size="14" text-anchor="middle">var.validate_certs</text></g><g id="edge6" class="edge"><title>[root] provider[&quot;registry.terraform.io/netapp/netapp-ontap&quot;]-&gt;[root] var.validate_certs</title><path fill="none" stroke="#000" d="M322.76,-73.29C338.21,-64.13 357.99,-52.39 375.2,-42.18"/><polygon fill="#000" stroke="#000" points="376.87 -45.26 383.68 -37.15 373.3 -39.24 376.87 -45.26"/></g><g id="node7" class="node"><title>[root] provider[&quot;registry.terraform.io/netapp/netapp-ontap&quot;] (close)</title><ellipse cx="296.28" cy="-306" fill="none" stroke="#000" rx="260.68" ry="18"/><text x="296.28" y="-300.95" font-family="Times,serif" font-size="14" text-anchor="middle">[root] provider[&quot;registry.terraform.io/netapp/netapp-ontap&quot;] (close)</text></g><g id="edge3" class="edge"><title>[root] provider[&quot;registry.terraform.io/netapp/netapp-ontap&quot;] (close)-&gt;[root] netapp-ontap_storage_volume_snapshot_resource.snapshot1 (expand)</title><path fill="none" stroke="#000" d="M296.28,-287.7C296.28,-280.41 296.28,-271.73 296.28,-263.54"/><polygon fill="#000" stroke="#000" points="299.78 -263.62 296.28 -253.62 292.78 -263.62 299.78 -263.62"/></g><g id="node8" class="node"><title>[root] root</title><ellipse cx="296.28" cy="-378" fill="none" stroke="#000" rx="49.3" ry="18"/><text x="296.28" y="-372.95" font-family="Times,serif" font-size="14" text-anchor="middle">[root] root</text></g><g id="edge7" class="edge"><title>[root] root-&gt;[root] provider[&quot;registry.terraform.io/netapp/netapp-ontap&quot;] (close)</title><path fill="none" stroke="#000" d="M296.28,-359.7C296.28,-352.41 296.28,-343.73 296.28,-335.54"/><polygon fill="#000" stroke="#000" points="299.78 -335.62 296.28 -325.62 292.78 -335.62 299.78 -335.62"/></g></g></svg>