<svg xmlns="http://www.w3.org/2000/svg" xmlns:xlink="http://www.w3.org/1999/xlink" width="872" height="332pt" viewBox="0 0 653.75 332"><g id="graph0" class="graph" transform="scale(1 1) rotate(0) translate(4 328)"><polygon fill="#fff" stroke="none" points="-4 4 -4 -328 649.75 -328 649.75 4 -4 4"/><g id="node1" class="node"><title>[root] netapp-ontap_storage_volume_resource.volume1 (expand)</title><polygon fill="none" stroke="#000" points="283 -180 0 -180 0 -144 283 -144 283 -180"/><text x="141.5" y="-156.95" font-family="Times,serif" font-size="14" text-anchor="middle">netapp-ontap_storage_volume_resource.volume1</text></g><g id="node3" class="node"><title>[root] provider[&quot;registry.terraform.io/netapp/netapp-ontap&quot;]</title><polygon fill="none" stroke="#000" points="307.5 -108 11.22 -90 307.5 -72 603.78 -90 307.5 -108"/><text x="307.5" y="-84.95" font-family="Times,serif" font-size="14" text-anchor="middle">provider[&quot;registry.terraform.io/netapp/netapp-ontap&quot;]</text></g><g id="edge1" class="edge"><title>[root] netapp-ontap_storage_volume_resource.volume1 (expand)-&gt;[root] provider[&quot;registry.terraform.io/netapp/netapp-ontap&quot;]</title><path fill="none" stroke="#000" d="M182.96,-143.52C206.63,-133.53 236.38,-120.99 260.87,-110.66"/><polygon fill="#000" stroke="#000" points="262.11 -113.94 269.96 -106.83 259.39 -107.49 262.11 -113.94"/></g><g id="node2" class="node"><title>[root] netapp-ontap_storage_volume_snapshot_resource.snapshot1 (expand)</title><polygon fill="none" stroke="#000" points="645.75 -180 301.25 -180 301.25 -144 645.75 -144 645.75 -180"/><text x="473.5" y="-156.95" font-family="Times,serif" font-size="14" text-anchor="middle">netapp-ontap_storage_volume_snapshot_resource.snapshot1</text></g><g id="edge2" class="edge"><title>[root] netapp-ontap_storage_volume_snapshot_resource.snapshot1 (expand)-&gt;[root] provider[&quot;registry.terraform.io/netapp/netapp-ontap&quot;]</title><path fill="none" stroke="#000" d="M432.04,-143.52C408.37,-133.53 378.62,-120.99 354.13,-110.66"/><polygon fill="#000" stroke="#000" points="355.61 -107.49 345.04 -106.83 352.89 -113.94 355.61 -107.49"/></g><g id="node4" class="node"><title>[root] var.password</title><polygon fill="none" stroke="#000" points="239.12 -36 157.88 -36 157.88 0 245.12 0 245.12 -30 239.12 -36"/><polyline fill="none" stroke="#000" points="239.12 -36 239.12 -30"/><polyline fill="none" stroke="#000" points="245.12 -30 239.12 -30"/><text x="201.5" y="-12.95" font-family="Times,serif" font-size="14" text-anchor="middle">var.password</text></g><g id="edge5" class="edge"><title>[root] provider[&quot;registry.terraform.io/netapp/netapp-ontap&quot;]-&gt;[root] var.password</title><path fill="none" stroke="#000" d="M283.45,-73.12C269.69,-64.03 252.17,-52.46 236.87,-42.36"/><polygon fill="#000" stroke="#000" points="239.22 -39.72 228.95 -37.13 235.36 -45.56 239.22 -39.72"/></g><g id="node5" class="node"><title>[root] var.username</title><polygon fill="none" stroke="#000" points="345.88 -36 263.12 -36 263.12 0 351.88 0 351.88 -30 345.88 -36"/><polyline fill="none" stroke="#000" points="345.88 -36 345.88 -30"/><polyline fill="none" stroke="#000" points="351.88 -30 345.88 -30"/><text x="307.5" y="-12.95" font-family="Times,serif" font-size="14" text-anchor="middle">var.username</text></g><g id="edge6" class="edge"><title>[root] provider[&quot;registry.terraform.io/netapp/netapp-ontap&quot;]-&gt;[root] var.username</title><path fill="none" stroke="#000" d="M307.5,-71.7C307.5,-64.41 307.5,-55.73 307.5,-47.54"/><polygon fill="#000" stroke="#000" points="311 -47.62 307.5 -37.62 304 -47.62 311 -47.62"/></g><g id="node6" class="node"><title>[root] var.validate_certs</title><polygon fill="none" stroke="#000" points="475.12 -36 369.88 -36 369.88 0 481.12 0 481.12 -30 475.12 -36"/><polyline fill="none" stroke="#000" points="475.12 -36 475.12 -30"/><polyline fill="none" stroke="#000" points="481.12 -30 475.12 -30"/><text x="425.5" y="-12.95" font-family="Times,serif" font-size="14" text-anchor="middle">var.validate_certs</text></g><g id="edge7" class="edge"><title>[root] provider[&quot;registry.terraform.io/netapp/netapp-ontap&quot;]-&gt;[root] var.validate_certs</title><path fill="none" stroke="#000" d="M333.98,-73.29C349.43,-64.13 369.21,-52.39 386.42,-42.18"/><polygon fill="#000" stroke="#000" points="388.09 -45.26 394.91 -37.15 384.52 -39.24 388.09 -45.26"/></g><g id="node7" class="node"><title>[root] provider[&quot;registry.terraform.io/netapp/netapp-ontap&quot;] (close)</title><ellipse cx="307.5" cy="-234" fill="none" stroke="#000" rx="260.68" ry="18"/><text x="307.5" y="-228.95" font-family="Times,serif" font-size="14" text-anchor="middle">[root] provider[&quot;registry.terraform.io/netapp/netapp-ontap&quot;] (close)</text></g><g id="edge3" class="edge"><title>[root] provider[&quot;registry.terraform.io/netapp/netapp-ontap&quot;] (close)-&gt;[root] netapp-ontap_storage_volume_resource.volume1 (expand)</title><path fill="none" stroke="#000" d="M266.89,-215.88C244.75,-206.54 217.11,-194.88 193.42,-184.89"/><polygon fill="#000" stroke="#000" points="194.81 -181.68 184.24 -181.02 192.09 -188.13 194.81 -181.68"/></g><g id="edge4" class="edge"><title>[root] provider[&quot;registry.terraform.io/netapp/netapp-ontap&quot;] (close)-&gt;[root] netapp-ontap_storage_volume_snapshot_resource.snapshot1 (expand)</title><path fill="none" stroke="#000" d="M348.11,-215.88C370.25,-206.54 397.89,-194.88 421.58,-184.89"/><polygon fill="#000" stroke="#000" points="422.91 -188.13 430.76 -181.02 420.19 -181.68 422.91 -188.13"/></g><g id="node8" class="node"><title>[root] root</title><ellipse cx="307.5" cy="-306" fill="none" stroke="#000" rx="49.3" ry="18"/><text x="307.5" y="-300.95" font-family="Times,serif" font-size="14" text-anchor="middle">[root] root</text></g><g id="edge8" class="edge"><title>[root] root-&gt;[root] provider[&quot;registry.terraform.io/netapp/netapp-ontap&quot;] (close)</title><path fill="none" stroke="#000" d="M307.5,-287.7C307.5,-280.41 307.5,-271.73 307.5,-263.54"/><polygon fill="#000" stroke="#000" points="311 -263.62 307.5 -253.62 304 -263.62 311 -263.62"/></g></g></svg>